<?xml version="1.0" encoding="utf-8"?>
<!-- Generator: Adobe Illustrator 21.1.0, SVG Export Plug-In . SVG Version: 6.00 Build 0)  -->
<svg version="1.1" id="Layer_1" xmlns="http://www.w3.org/2000/svg" xmlns:xlink="http://www.w3.org/1999/xlink" x="0px" y="0px"
	 viewBox="0 0 29.8 29.7" style="enable-background:new 0 0 29.8 29.7;" xml:space="preserve">
<style type="text/css">
	.st0{fill:#E4E4E4;}
</style>
<g>
	<path class="st0" d="M29.8,0c0,2,0,3.8,0,5.7c-9.9,0-19.8,0-29.8,0C0,3.9,0,2,0,0C9.8,0,19.7,0,29.8,0z"/>
	<path class="st0" d="M0,17.7c0-2,0-3.8,0-5.7c9.9,0,19.8,0,29.8,0c0,1.8,0,3.7,0,5.7C20,17.7,10.1,17.7,0,17.7z"/>
	<path class="st0" d="M29.8,24c0,2,0,3.8,0,5.7c-9.9,0-19.8,0-29.8,0C0,27.9,0,26,0,24C9.8,24,19.7,24,29.8,24z"/>
</g>
</svg>
